<?xml version="1.0" encoding="UTF-8"?>
<svg version="1.1" xmlns="http://www.w3.org/2000/svg" width="128" height="128">
<path d="M0 0 C42.24 0 84.48 0 128 0 C128 42.24 128 84.48 128 128 C85.76 128 43.52 128 0 128 C0 85.76 0 43.52 0 0 Z " fill="#050A1F" transform="translate(0,0)"/>
<path d="M0 0 C1.20849609 0.00644531 2.41699219 0.01289062 3.66210938 0.01953125 C5.55606445 0.04466797 5.55606445 0.04466797 7.48828125 0.0703125 C8.76251953 0.07933594 10.03675781 0.08835938 11.34960938 0.09765625 C14.50018752 0.12125609 17.65039108 0.15418056 20.80078125 0.1953125 C20.22733188 3.06255936 19.93932975 4.056764 17.80078125 6.1953125 C15.67773438 6.48242188 15.67773438 6.48242188 13.08203125 6.5390625 C12.15003906 6.56871094 11.21804687 6.59835938 10.2578125 6.62890625 C8.28645833 6.67317708 6.31510417 6.71744792 4.34375 6.76171875 C3.41175781 6.79136719 2.47976562 6.82101563 1.51953125 6.8515625 C0.66294922 6.87025391 -0.19363281 6.88894531 -1.07617188 6.90820312 C-3.41388988 7.00600661 -3.41388988 7.00600661 -5.19921875 9.1953125 C-5.36599157 12.77875226 -5.36599157 12.77875226 -5.19921875 16.1953125 C-4.43351562 15.70417969 -4.43351562 15.70417969 -3.65234375 15.203125 C-0.33149838 13.83882866 2.47450693 14.0040852 6.05078125 14.0703125 C7.3140625 14.08835937 8.57734375 14.10640625 9.87890625 14.125 C10.843125 14.14820313 11.80734375 14.17140625 12.80078125 14.1953125 C11.80078125 16.1953125 10.80078125 18.1953125 9.80078125 20.1953125 C6.83078125 20.1953125 3.86078125 20.1953125 0.80078125 20.1953125 C0.80078125 20.8553125 0.80078125 21.5153125 0.80078125 22.1953125 C2.45078125 22.5253125 4.10078125 22.8553125 5.80078125 23.1953125 C5.80078125 24.1853125 5.80078125 25.1753125 5.80078125 26.1953125 C6.46078125 26.1953125 7.12078125 26.1953125 7.80078125 26.1953125 C7.80078125 27.1853125 7.80078125 28.1753125 7.80078125 29.1953125 C6.15078125 28.8653125 4.50078125 28.5353125 2.80078125 28.1953125 C2.80078125 28.8553125 2.80078125 29.5153125 2.80078125 30.1953125 C4.45078125 30.5253125 6.10078125 30.8553125 7.80078125 31.1953125 C8.39810944 33.95795539 8.80078125 36.35564019 8.80078125 39.1953125 C11.44078125 33.5853125 14.08078125 27.9753125 16.80078125 22.1953125 C15.81078125 22.1953125 14.82078125 22.1953125 13.80078125 22.1953125 C14.96447251 18.70423871 15.69051663 18.34308487 18.73828125 16.5078125 C19.44855469 16.07082031 20.15882812 15.63382813 20.890625 15.18359375 C22.80078125 14.1953125 22.80078125 14.1953125 24.80078125 14.1953125 C26.12078125 18.1553125 27.44078125 22.1153125 28.80078125 26.1953125 C29.13078125 24.2153125 29.46078125 22.2353125 29.80078125 20.1953125 C30.86328125 17.8203125 30.86328125 17.8203125 31.80078125 16.1953125 C30.48078125 16.1953125 29.16078125 16.1953125 27.80078125 16.1953125 C27.30578125 13.7203125 27.30578125 13.7203125 26.80078125 11.1953125 C31.42078125 11.1953125 36.04078125 11.1953125 40.80078125 11.1953125 C38.55424385 17.93492469 38.55424385 17.93492469 36.875 21.0234375 C36.49674072 21.72847412 36.11848145 22.43351074 35.72875977 23.15991211 C35.31940186 23.91409424 34.91004395 24.66827637 34.48828125 25.4453125 C29.51864035 34.71967518 24.81628081 44.11628475 20.18041992 53.56152344 C19.65424072 54.62532227 19.12806152 55.68912109 18.5859375 56.78515625 C18.1206665 57.73253662 17.65539551 58.67991699 17.17602539 59.65600586 C15.85893785 62.08792979 14.70010588 64.18139859 12.80078125 66.1953125 C10.80786133 66.64941406 10.80786133 66.64941406 8.5703125 66.5859375 C7.36665039 66.56660156 7.36665039 66.56660156 6.13867188 66.546875 C5.30529297 66.51335937 4.47191406 66.47984375 3.61328125 66.4453125 C2.76830078 66.42726563 1.92332031 66.40921875 1.05273438 66.390625 C-1.03173448 66.34351836 -3.11562019 66.27177483 -5.19921875 66.1953125 C-8.02905272 60.82989721 -10.85420632 55.46204829 -13.67578125 50.09228516 C-14.70063616 48.14341843 -15.72669939 46.19518668 -16.75390625 44.24755859 C-28.40176276 22.15792028 -28.40176276 22.15792028 -33.19921875 11.1953125 C-31.35457031 11.22625 -31.35457031 11.22625 -29.47265625 11.2578125 C-20.64766443 11.56706284 -20.64766443 11.56706284 -12.7734375 8.41796875 C-11.22968434 6.32041713 -11.22968434 6.32041713 -10.171875 4.10546875 C-7.89836793 -0.35937044 -4.45299756 -0.04181218 0 0 Z " fill="#0A0F1A" transform="translate(60.19921875,35.8046875)"/>
<path d="M0 0 C5.61 0 11.22 0 17 0 C17 1.65 17 3.3 17 5 C14.36 5 11.72 5 9 5 C9.41773682 5.80518066 9.83547363 6.61036133 10.26586914 7.43994141 C11.85278425 10.4999044 13.43876628 13.56034755 15.02416992 16.62109375 C15.70349875 17.93215206 16.38317242 19.24303175 17.06323242 20.55371094 C19.3858686 25.03050191 21.69862487 29.51224098 24 34 C24.34053406 34.66334351 24.68106812 35.32668701 25.03192139 36.01013184 C26.02482788 37.94964501 27.01150392 39.89219151 27.99609375 41.8359375 C28.8631897 43.54209229 28.8631897 43.54209229 29.74780273 45.28271484 C31 48 31 48 31 50 C34.96 50 38.92 50 43 50 C43.39856201 48.7147644 43.39856201 48.7147644 43.80517578 47.40356445 C45.682704 42.05525612 48.32430955 37.09708156 50.91259766 32.06665039 C51.8780069 30.18162883 52.82367673 28.28747103 53.76953125 26.39257812 C54.38422341 25.19209659 55.00006869 23.99220465 55.6171875 22.79296875 C56.17003418 21.7052417 56.72288086 20.61751465 57.29248047 19.49682617 C59 17 59 17 61.21142578 16.13793945 C62.09677002 16.06965942 62.09677002 16.06965942 63 16 C62.6596875 14.948125 62.6596875 14.948125 62.3125 13.875 C61.90467361 10.12299725 63.13622707 8.20568943 65 5 C63.68 5 62.36 5 61 5 C60.505 2.525 60.505 2.525 60 0 C64.62 0 69.24 0 74 0 C71.7534626 6.73961219 71.7534626 6.73961219 70.07421875 9.828125 C69.69595947 10.53316162 69.3177002 11.23819824 68.92797852 11.96459961 C68.51862061 12.71878174 68.1092627 13.47296387 67.6875 14.25 C62.7178591 23.52436268 58.01549956 32.92097225 53.37963867 42.36621094 C52.85345947 43.43000977 52.32728027 44.49380859 51.78515625 45.58984375 C51.31988525 46.53722412 50.85461426 47.48460449 50.37524414 48.46069336 C49.0581566 50.89261729 47.89932463 52.98608609 46 55 C44.00708008 55.45410156 44.00708008 55.45410156 41.76953125 55.390625 C40.56586914 55.37128906 40.56586914 55.37128906 39.33789062 55.3515625 C38.50451172 55.31804687 37.67113281 55.28453125 36.8125 55.25 C35.5450293 55.22292969 35.5450293 55.22292969 34.25195312 55.1953125 C32.16748427 55.14820586 30.08359856 55.07646233 28 55 C25.17016603 49.63458471 22.34501243 44.26673579 19.5234375 38.89697266 C18.49858259 36.94810593 17.47251936 34.99987418 16.4453125 33.05224609 C10.69365009 22.14447587 5.00996936 11.27243106 0 0 Z " fill="#F3F3F4" transform="translate(27,47)"/>
<path d="M0 0 C1.32 4.29 2.64 8.58 4 13 C2.35 13 0.7 13 -1 13 C-1.56714722 14.14214966 -1.56714722 14.14214966 -2.14575195 15.30737305 C-3.55866612 18.15031317 -4.97342159 20.99232737 -6.3894043 23.83374023 C-7.00016241 25.06026399 -7.61019987 26.28714688 -8.21948242 27.5144043 C-9.0988196 29.28530165 -9.98102357 31.05477457 -10.86328125 32.82421875 C-11.39219971 33.88729248 -11.92111816 34.95036621 -12.46606445 36.0456543 C-12.97226318 37.02058838 -13.47846191 37.99552246 -14 39 C-14.47332764 39.94593018 -14.94665527 40.89186035 -15.43432617 41.86645508 C-17 44 -17 44 -19.04296875 44.48828125 C-21.02864583 44.32552083 -23.01432292 44.16276042 -25 44 C-34.26414358 27.14670308 -34.26414358 27.14670308 -33 19 C-32.67 18.34 -32.34 17.68 -32 17 C-31.34 17 -30.68 17 -30 17 C-28.66180502 19.6226232 -27.3292849 22.24786599 -26 24.875 C-25.6184375 25.62136719 -25.236875 26.36773437 -24.84375 27.13671875 C-24.4828125 27.85214844 -24.121875 28.56757812 -23.75 29.3046875 C-23.41484375 29.96452637 -23.0796875 30.62436523 -22.734375 31.30419922 C-22 33 -22 33 -22 35 C-21.34 35 -20.68 35 -20 35 C-19.77570313 34.23429687 -19.55140625 33.46859375 -19.3203125 32.6796875 C-17.51752396 27.65534784 -15.19777627 22.92670556 -12.875 18.125 C-12.40707031 17.15046875 -11.93914062 16.1759375 -11.45703125 15.171875 C-10.30785155 12.77970501 -9.15542757 10.38915684 -8 8 C-8.99 8 -9.98 8 -11 8 C-9.83630874 4.50892621 -9.11026462 4.14777237 -6.0625 2.3125 C-5.35222656 1.87550781 -4.64195313 1.43851563 -3.91015625 0.98828125 C-2 0 -2 0 0 0 Z " fill="#51CB96" transform="translate(85,50)"/>
<path d="M0 0 C1.21171875 0.00322266 2.4234375 0.00644531 3.671875 0.00976562 C4.94289063 0.01814453 6.21390625 0.02652344 7.5234375 0.03515625 C8.8021875 0.03966797 10.0809375 0.04417969 11.3984375 0.04882812 C14.56515042 0.06064422 17.73177106 0.0771181 20.8984375 0.09765625 C20.32498813 2.96490311 20.036986 3.95910775 17.8984375 6.09765625 C15.77539062 6.38476562 15.77539062 6.38476562 13.1796875 6.44140625 C12.24769531 6.47105469 11.31570312 6.50070313 10.35546875 6.53125 C8.38411458 6.57552083 6.41276042 6.61979167 4.44140625 6.6640625 C3.50941406 6.69371094 2.57742187 6.72335938 1.6171875 6.75390625 C0.76060547 6.77259766 -0.09597656 6.79128906 -0.97851562 6.81054688 C-3.31623363 6.90835036 -3.31623363 6.90835036 -5.1015625 9.09765625 C-5.26833532 12.68109601 -5.26833532 12.68109601 -5.1015625 16.09765625 C-4.59109375 15.77023438 -4.080625 15.4428125 -3.5546875 15.10546875 C-0.23384213 13.74117241 2.57216318 13.90642895 6.1484375 13.97265625 C7.41171875 13.99070312 8.675 14.00875 9.9765625 14.02734375 C10.94078125 14.05054688 11.905 14.07375 12.8984375 14.09765625 C11.3984375 17.09765625 11.3984375 17.09765625 9.8984375 20.09765625 C8.04296875 20.37109375 8.04296875 20.37109375 5.7109375 20.47265625 C1.12418572 20.90220919 -1.54160613 22.03443798 -5.1015625 25.09765625 C-7.56919655 28.29891124 -9.48045272 31.06044271 -10.1015625 35.09765625 C-10.7615625 35.09765625 -11.4215625 35.09765625 -12.1015625 35.09765625 C-13.27310543 32.80836572 -14.43894324 30.51647263 -15.6015625 28.22265625 C-15.93542969 27.57167969 -16.26929688 26.92070313 -16.61328125 26.25 C-19.1015625 21.32421875 -19.1015625 21.32421875 -19.1015625 19.09765625 C-17.1215625 19.09765625 -15.1415625 19.09765625 -13.1015625 19.09765625 C-13.15957031 18.30101563 -13.21757813 17.504375 -13.27734375 16.68359375 C-13.69181953 6.949334 -13.69181953 6.949334 -10.7265625 3.41015625 C-6.87372893 0.01599334 -5.06138828 -0.02365135 0 0 Z " fill="#51CA96" transform="translate(60.1015625,35.90234375)"/>
<path d="M0 0 C1.010625 0.45375 2.02125 0.9075 3.0625 1.375 C3.0625 2.365 3.0625 3.355 3.0625 4.375 C3.7225 4.375 4.3825 4.375 5.0625 4.375 C5.0625 5.365 5.0625 6.355 5.0625 7.375 C2.5875 6.88 2.5875 6.88 0.0625 6.375 C0.0625 7.035 0.0625 7.695 0.0625 8.375 C1.7125 8.705 3.3625 9.035 5.0625 9.375 C6.16972755 13.42745282 5.87882485 16.0568068 4.6875 20.0625 C4.41164063 21.01511719 4.13578125 21.96773437 3.8515625 22.94921875 C3.0625 25.375 3.0625 25.375 2.0625 27.375 C1.4025 27.375 0.7425 27.375 0.0625 27.375 C-1.27569498 24.7523768 -2.6082151 22.12713401 -3.9375 19.5 C-4.3190625 18.75363281 -4.700625 18.00726563 -5.09375 17.23828125 C-5.4546875 16.52285156 -5.815625 15.80742188 -6.1875 15.0703125 C-6.52265625 14.41047363 -6.8578125 13.75063477 -7.203125 13.07080078 C-7.9375 11.375 -7.9375 11.375 -7.9375 9.375 C-8.5975 9.375 -9.2575 9.375 -9.9375 9.375 C-9.9375 10.035 -9.9375 10.695 -9.9375 11.375 C-10.9275 11.375 -11.9175 11.375 -12.9375 11.375 C-11.8576716 6.33580079 -9.80310738 3.53991481 -5.890625 0.3671875 C-3.9375 -0.625 -3.9375 -0.625 0 0 Z " fill="#0D1322" transform="translate(62.9375,57.625)"/>
<path d="M0 0 C0.66 0 1.32 0 2 0 C2 0.66 2 1.32 2 2 C2.99 2 3.98 2 5 2 C5 2.99 5 3.98 5 5 C3.35 4.67 1.7 4.34 0 4 C0 4.66 0 5.32 0 6 C1.65 6.33 3.3 6.66 5 7 C5.33 8.65 5.66 10.3 6 12 C4.68 12.33 3.36 12.66 2 13 C2 13.66 2 14.32 2 15 C1.34 15 0.68 15 0 15 C0 14.34 0 13.68 0 13 C-0.99 12.67 -1.98 12.34 -3 12 C-3 11.34 -3 10.68 -3 10 C-0.03 10.495 -0.03 10.495 3 11 C3 10.34 3 9.68 3 9 C1.02 8.34 -0.96 7.68 -3 7 C-2.67 5.35 -2.34 3.7 -2 2 C-1.34 2 -0.68 2 0 2 C0 1.34 0 0.68 0 0 Z " fill="#D8D8DA" transform="translate(63,60)"/>
<path d="M0 0 C0.33 0 0.66 0 1 0 C1 3.3 1 6.6 1 10 C-0.670625 10.4640625 -0.670625 10.4640625 -2.375 10.9375 C-5.7945155 11.82326483 -5.7945155 11.82326483 -8 13 C-8.66 11.02 -9.32 9.04 -10 7 C-7.36 7 -4.72 7 -2 7 C-2.04125 6.21625 -2.0825 5.4325 -2.125 4.625 C-2 2 -2 2 0 0 Z " fill="#161E2C" transform="translate(46,45)"/>
<path d="M0 0 C0.33 0 0.66 0 1 0 C1.09796875 0.54527344 1.1959375 1.09054688 1.296875 1.65234375 C2.45999743 7.51809047 4.38539903 12.63118344 7 18 C6.01 18.66 5.02 19.32 4 20 C-2.032287 8.66816143 -2.032287 8.66816143 -1.953125 4.578125 C-1.375 2.6875 -1.375 2.6875 0 0 Z " fill="#141E26" transform="translate(51,71)"/>
<path d="M0 0 C0.99 0 1.98 0 3 0 C1.50829734 4.9723422 -0.60457417 9.41845739 -3 14 C-3.33 13.34 -3.66 12.68 -4 12 C-4.66 11.67 -5.32 11.34 -6 11 C-4.02 7.37 -2.04 3.74 0 0 Z " fill="#151A23" transform="translate(84,62)"/>
<path d="M0 0 C1.65 0 3.3 0 5 0 C3.125 7.625 3.125 7.625 2 11 C-1.07692308 4.6 -1.07692308 4.6 -0.6875 1.5625 C-0.460625 1.046875 -0.23375 0.53125 0 0 Z " fill="#161F25" transform="translate(87,52)"/>
<path d="M0 0 C0.33 0 0.66 0 1 0 C1.33 3.3 1.66 6.6 2 10 C1.01 10 0.02 10 -1 10 C-2.31223496 6.06329512 -1.24296256 3.87511856 0 0 Z " fill="#16292C" transform="translate(51,71)"/>
<path d="M0 0 C0.99 0.33 1.98 0.66 3 1 C1.37660195 2.70884005 -0.29319053 4.37446717 -2 6 C-2.66 6 -3.32 6 -4 6 C-2.84826645 3.53199953 -1.95216435 1.95216435 0 0 Z " fill="#070E1A" transform="translate(56,59)"/>
</svg>
